<?xml version="1.0" encoding="UTF-8" standalone="no"?>
<!-- Created with Inkscape (http://www.inkscape.org/) -->

<svg
   version="1.1"
   id="svg2"
   width="793.76001"
   height="1122.5601"
   viewBox="0 0 793.76001 1122.5601"
   xmlns="http://www.w3.org/2000/svg"
   xmlns:svg="http://www.w3.org/2000/svg">
  <defs
     id="defs6" />
  <g
     id="g8"
     transform="translate(0,6.9397335e-5)">
    <g
       id="g10">
      <path
         d="M 531.84003,789.76001 530.08002,1023.04 H 182.88 V 874.88 H 31.52 v -85.59997"
         style="fill:none;stroke:#000000;stroke-width:3.84;stroke-linecap:round;stroke-linejoin:round;stroke-miterlimit:10;stroke-dasharray:none;stroke-opacity:1"
         id="path12" />
    </g>
    <g
       id="g14"
       transform="translate(328.79999,793.59998)">
      <path
         d="M 0,0 H 0.16 M 0,3.52 1.76,1.76 M 0,7.04 1.76,5.28 M 0,10.72 1.76,8.8 M 0,14.24 1.76,12.48 M 0,17.76 1.76,16 M 0,21.280001 1.76,19.52 M 0,24.959999 1.76,23.040001 M 0,28.48 1.76,26.719999"
         style="fill:none;stroke:#ff0000;stroke-width:3.84;stroke-linecap:round;stroke-linejoin:round;stroke-miterlimit:10;stroke-dasharray:none;stroke-opacity:1"
         id="path16" />
    </g>
    <g
       id="g18">
      <path
         d="m 334.72,798.23999 h 0.16"
         style="fill:none;stroke:#0000ff;stroke-width:3.84;stroke-linecap:round;stroke-linejoin:round;stroke-miterlimit:10;stroke-dasharray:none;stroke-opacity:1"
         id="path20" />
    </g>
    <g
       id="g22">
      <path
         d="M 334.72,801.76001 336.48001,800 l 1.91998,-1.76001"
         style="fill:none;stroke:#0000ff;stroke-width:3.84;stroke-linecap:round;stroke-linejoin:round;stroke-miterlimit:10;stroke-dasharray:none;stroke-opacity:1"
         id="path24" />
    </g>
    <g
       id="g26"
       transform="translate(334.72,805.44)">
      <path
         d="M 0,0 1.76,-1.92 M 5.28,-5.44 7.2,-7.2 M 0,3.52 1.76,1.76 m 7.2,-7.2 1.76,-1.76 M 0,7.04 1.76,5.28 M 12.48,-5.44 14.24,-7.2 M 0,10.56 1.76,8.8 M 16,-5.44 17.76,-7.2 M 0,14.24 1.76,12.32 M 19.52,-5.44 21.440001,-7.2 M 0.32,17.440001 1.76,16 M 23.200001,-5.44 24.959999,-7.2 m 1.76,1.76 L 28.48,-7.2 M 30.24,-5.44 32,-7.2 M 33.759998,-5.44 35.68,-7.2 m 1.759999,1.76 1.760002,-1.76 m 1.759998,1.76 1.760002,-1.76 M 44.48,-5.44 46.240002,-7.2 M 48,-5.44 49.919998,-7.2 M 51.52,-5.44 53.439999,-7.2 m 1.760002,1.76 1.759998,-1.76 M 58.720001,-5.44 60.48,-7.2 M 62.240002,-5.44 64,-7.2 M 65.760002,-5.44 67.68,-7.2 m 1.760002,1.76 1.759995,-1.76 m 1.760002,1.76 1.760002,-1.76 m 1.760002,1.76 1.759995,-1.76 M 80,-5.44 81.919998,-7.2 M 83.68,-5.44 85.440002,-7.2 m 1.759995,1.76 1.760002,-1.76 m 1.760002,1.76 1.760002,-1.76 m 1.759995,1.76 1.920006,-1.76 M 97.760002,-5.44 99.68,-7.2 m 1.76,1.76 1.76,-1.76 m 1.76,1.76 1.76,-1.76 m 1.76,1.76 1.92,-1.76 m 1.6,1.76 1.92,-1.76 m 1.76,1.76 1.76,-1.76 m 1.76,1.76 1.76,-1.76 m 1.76,1.76 1.76,-1.76 m 1.76,1.76 1.92,-1.76 m 1.76,1.76 1.75999,-1.76 m 1.76001,1.76 1.76,-1.76 m 1.76001,1.76 1.75999,-1.76 m 1.76,1.76 1.91999,-1.76 m 1.76001,1.76 1.76,-1.76 m 1.75999,1.76 1.76001,-1.76 m -2.88,6.4 1.92,-1.76 m 2.72,-2.88 1.76001,-1.76 m -4.48001,4.48 1.6,-1.6 m -3.52,7.04 1.92,-1.76 m 6.24,-6.4 1.92,-1.76 m -4.8,4.8 1.76001,-1.92 M 146.56,6.24 148.48,4.48 m 9.76,-9.92 1.92,-1.76 m -4.8,4.8 1.75999,-1.92 M 146.56,9.92 148.48,8 m 13.44,-13.44 1.75999,-1.76 m -4.79999,4.8 1.92,-1.92 m -14.24,17.76 1.92,-1.92 m 16.96,-16.96 1.76,-1.76 m -4.80001,4.8 1.92002,-1.92 M 147.52,16.16 148.48,15.2 M 168.96001,-5.44 170.72,-7.2 m -4.64,4.8 1.76,-1.92 m 1.76001,1.92 1.75999,-1.92 m 1.12,-1.12 1.91999,-1.76 m -1.28,4.8 1.92,-1.92 m 1.12001,-1.12 1.76,-1.76 m -1.28,4.8 1.92,-1.92 m 1.11999,-1.12 1.76001,-1.76 m -1.11999,4.8 1.75999,-1.92 m 1.12,-1.12 1.76001,-1.76 m -1.12001,4.8 1.76001,-1.92 m 1.75999,1.92 1.75999,-1.92"
         style="fill:none;stroke:#0000ff;stroke-width:3.84;stroke-linecap:round;stroke-linejoin:round;stroke-miterlimit:10;stroke-dasharray:none;stroke-opacity:1"
         id="path28" />
    </g>
    <g
       id="g30">
      <path
         d="M 338.07999,822.88 H 208 v 93.44001"
         style="fill:none;stroke:#000000;stroke-width:1.28;stroke-linecap:round;stroke-linejoin:round;stroke-miterlimit:10;stroke-dasharray:none;stroke-opacity:1"
         id="path32" />
    </g>
    <g
       id="g34">
      <path
         d="m 338.07999,822.88 v 93.44001 H 208"
         style="fill:none;stroke:#000000;stroke-width:1.28;stroke-linecap:round;stroke-linejoin:round;stroke-miterlimit:10;stroke-dasharray:none;stroke-opacity:1"
         id="path36" />
    </g>
    <g
       id="g38"
       transform="translate(489.76001,796.15997)">
      <path
         d="M 0,0 0.64,-0.64 M 0,3.68 1.76,1.76 M 2.4,1.12 4.32,-0.64 M 0,7.2 1.76,5.28 M 6.08,1.12 7.84,-0.64 M 0,10.72 1.76,8.96 M 9.6,1.12 11.36,-0.64 M 0,14.24 1.76,12.48 M 13.12,1.12 14.88,-0.64 M 0,17.92 1.76,16 m 14.879999,-14.88 1.92,-1.76 M 0,21.440001 1.76,19.52 m 18.4,-18.4 1.92,-1.76 M 0,24.959999 1.76,23.200001 M 23.84,1.12 25.6,-0.64 m 1.760001,1.76 1.76,-1.76 m 1.759998,1.76 1.92,-1.76 M 34.400002,1.12 36.32,-0.64 M 38.080002,1.12 39.84,-0.64"
         style="fill:none;stroke:#ff0000;stroke-width:3.84;stroke-linecap:round;stroke-linejoin:round;stroke-miterlimit:10;stroke-dasharray:none;stroke-opacity:1"
         id="path40" />
    </g>
    <g
       id="g42">
      <path
         d="M 494.72,821.59998 H 364.64001 v 93.44"
         style="fill:none;stroke:#000000;stroke-width:1.28;stroke-linecap:round;stroke-linejoin:round;stroke-miterlimit:10;stroke-dasharray:none;stroke-opacity:1"
         id="path44" />
    </g>
    <g
       id="g46">
      <path
         d="m 494.72,821.59998 v 93.44 H 364.64001"
         style="fill:none;stroke:#000000;stroke-width:1.28;stroke-linecap:round;stroke-linejoin:round;stroke-miterlimit:10;stroke-dasharray:none;stroke-opacity:1"
         id="path48" />
    </g>
    <g
       id="g50"
       transform="scale(0.28125)">
      <text
         xml:space="preserve"
         transform="translate(539.84003,581.91998)"
         style="font-variant:normal;font-weight:normal;font-size:327.68px;font-family:F1;-inkscape-font-specification:F1;writing-mode:lr-tb;fill:#000000;fill-opacity:1;fill-rule:nonzero;stroke:none"
         id="text54"><tspan
           x="0 235.9296 455.47519 691.40479"
           y="0"
           id="tspan52">DACH</tspan></text>
    </g>
    <g
       id="g56"
       transform="translate(526.71997,560)">
      <path
         d="M 0,0 1.76,-1.76 M 0,3.68 1.76,1.76 M 3.84,-0.32 5.6,-2.08 M 0,7.2 1.76,5.44 M 3.84,3.36 5.6,1.44 M 0,10.72 1.76,8.96 M 3.84,6.88 5.6,4.96 M 0,14.24 1.76,12.48 M 3.84,10.4 5.6,8.64 M 0,17.92 1.76,16 M 3.84,13.92 5.6,12.16 M 0,21.440001 1.76,19.68 M 3.84,17.6 5.6,15.68 M 0,24.959999 1.76,23.200001 m 2.08,-2.08 1.76,-1.92 M 0,28.48 1.76,26.719999 m 2.08,-2.08 1.76,-1.76 M 0,32.16 1.76,30.24 M 3.84,28.16 5.6,26.4 M 0,35.68 1.76,33.759998 M 3.84,31.68 5.6,29.92 M 0,39.200001 1.76,37.439999 M 3.84,35.360001 5.6,33.439999 M 0,42.720001 1.76,40.959999 M 3.84,38.880001 5.6,37.119999 M 0,46.400002 1.76,44.48 M 3.84,42.400002 5.6,40.639999 M 0,49.919998 1.76,48 M 3.84,45.919998 5.6,44.16 M 0,53.439999 1.76,51.68 M 3.84,49.599998 5.6,47.68 M 0,56.959999 1.76,55.200001 M 3.84,53.119999 5.6,51.360001 M 0,60.48 1.76,58.720001 M 3.84,56.639999 5.6,54.880001 M 0,64.160004 1.76,62.240002 M 3.84,60.16 5.6,58.400002 M 0,67.68 1.76,65.919998 M 3.84,63.84 5.6,61.919998 M 0,71.199997 1.76,69.440002 M 3.84,67.360001 5.6,65.599998 M 0,74.720001 1.76,72.959999 M 3.84,70.879997 5.6,69.120003 M 0,78.400002 1.76,76.480003 M 3.84,74.400002 5.6,72.639999 M 0,81.919998 1.76,80.160004 M 3.84,78.080002 5.6,76.160004 M 0,85.440002 1.76,83.68 M 3.84,81.599998 5.6,79.68 M 0,88.959999 1.76,87.199997 M 3.84,85.120003 5.6,83.360001 M 0,92.639999 1.76,90.720001 M 3.84,88.639999 5.6,86.879997 M 0,96.160004 1.76,94.239998 M 3.84,92.32 5.6,90.400002 M 0,99.68 1.76,97.919998 M 3.84,95.839996 5.6,93.919998 M 0,103.2 1.76,101.44 M 3.84,99.360001 5.6,97.599998 M 0,106.88 1.76,104.96 m 2.08,-2.08 1.76,-1.76 M 0,110.4 1.76,108.48 m 2.08,-2.08 1.76,-1.76 m -5.6,9.28 1.76,-1.76 m 2.08,-2.08 1.76,-1.92 M 0,117.44 1.76,115.68 M 3.84,113.6 5.6,111.84 M 0,120.96 1.76,119.2 m 2.08,-2.08 1.76,-1.76 m -5.6,9.28 1.76,-1.92 m 2.08,-2.08 1.76,-1.76 M 0,128.16 1.76,126.4 M 3.84,124.32 5.6,122.4 M 0,131.67999 1.76,129.92 m 2.08,-2.08 1.76,-1.76 M 0,135.2 1.76,133.44 m 2.08,-2.08 1.76,-1.75999 M 0,138.88 1.76,136.96001 M 3.84,134.88 5.6,133.11999 m -5.6,9.28 1.76,-1.75999 m 2.08,-2.08 1.76,-1.92 m -5.6,9.28 1.76,-1.76 m 2.08,-2.08 1.76,-1.92 M 0,149.44 1.76,147.67999 M 3.84,145.60001 5.6,143.84 M 0,153.11999 1.76,151.2 M 3.84,149.11999 5.6,147.36 m -5.6,9.28 1.76,-1.92 m 2.08,-1.92 1.76,-1.92 m -5.6,9.28 1.76,-1.76001 m 2.08,-2.07998 1.76,-1.92002 m -5.6,9.28 1.76,-1.75999 m 2.08,-2.08 1.76,-1.76 m -5.6,9.28 1.76,-1.92 m 2.08,-2.08 1.76,-1.75999 M 0,170.88 1.76,168.96001 M 3.84,166.88 5.6,165.11999 m -5.6,9.28 1.76,-1.75999 m 2.08,-2.08 1.76,-1.92 m -5.6,9.28 1.76,-1.76 m 2.08,-2.08 1.76,-1.75999 M 0,181.44 1.76,179.67999 M 3.84,177.60001 5.6,175.84 M 0,185.11999 1.76,183.2 M 3.84,181.11999 5.6,179.36 M 0,188.64 1.76,186.88 M 3.84,184.8 5.6,182.88 M 0,192.16 1.76,190.39999 M 3.84,188.32001 5.6,186.56 M 0,195.67999 1.76,193.92 m 2.08,-2.08 1.76,-1.76 m -5.6,9.28 1.76,-1.92 m 2.08,-2.08 1.76,-1.75999 M 0,202.88 1.76,201.11999 m 2.08,-2.08 1.76,-1.92 m -5.6,9.28 1.76,-1.75999 m 2.08,-2.08 1.76,-1.92 m -5.6,9.28 1.76,-1.76 m 2.08,-2.08 1.76,-1.75999 m -5.6,9.28 1.76,-1.92002 M 3.84,209.60001 5.6,207.84 M 0,217.11999 1.76,215.2 m 2.08,-1.92 1.76,-1.92 M 0,220.64 1.76,218.88 M 3.84,216.8 5.6,214.88 M 0,224.16 1.76,222.39999 M 3.84,220.32001 5.6,218.56 m -5.6,9.28 1.76,-1.92"
         style="fill:none;stroke:#ff0000;stroke-width:3.84;stroke-linecap:round;stroke-linejoin:round;stroke-miterlimit:10;stroke-dasharray:none;stroke-opacity:1"
         id="path58" />
    </g>
    <g
       id="g60"
       transform="translate(530.56,783.84003)">
      <path
         d="M 0,0 1.76,-1.76 M -3.84,7.52 -2.08,5.6 M 0,3.52 1.76,1.76 M 0,7.2 1.76,5.28 M 0,10.72 1.76,8.96"
         style="fill:none;stroke:#ff0000;stroke-width:3.84;stroke-linecap:round;stroke-linejoin:round;stroke-miterlimit:10;stroke-dasharray:none;stroke-opacity:1"
         id="path62" />
    </g>
    <g
       id="g64">
      <path
         d="M 532.32001,556.79999 V 795.35998 H 530.56 V 556.79999 Z"
         style="fill:none;stroke:#ff0000;stroke-width:3.84;stroke-linecap:round;stroke-linejoin:round;stroke-miterlimit:10;stroke-dasharray:none;stroke-opacity:1"
         id="path66" />
    </g>
    <g
       id="g68">
      <path
         d="m 528.47998,557.12 v 235.03997 h -1.76001 V 557.12 Z"
         style="fill:none;stroke:#ff0000;stroke-width:3.84;stroke-linecap:round;stroke-linejoin:round;stroke-miterlimit:10;stroke-dasharray:none;stroke-opacity:1"
         id="path70" />
    </g>
    <g
       id="g72"
       transform="translate(328.79999,793.44)">
      <path
         d="M 0,0 1.92,-1.76 M 3.52,0 5.44,-1.76 M 7.2,0 8.96,-1.76 M 10.72,0 12.48,-1.76 M 14.24,0 16.16,-1.76 m 1.6,1.76 1.92,-1.76 m 1.760001,1.76 1.76,-1.76 m 1.759998,1.76 1.76,-1.76 M 28.48,0 30.24,-1.76 M 32,0 33.919998,-1.76 M 35.68,0 37.439999,-1.76 M 39.200001,0 40.959999,-1.76 M 42.720001,0 44.48,-1.76 M 46.240002,0 48.16,-1.76 M 49.919998,0 51.68,-1.76 M 53.439999,0 55.200001,-1.76 M 56.959999,0 58.720001,-1.76 M 60.48,0 62.400002,-1.76 M 64,0 65.919998,-1.76 M 67.68,0 69.440002,-1.76 M 71.199997,0 72.959999,-1.76 M 74.720001,0 76.639999,-1.76 M 78.239998,0 80.160004,-1.76 M 81.919998,0 83.68,-1.76 M 85.440002,0 87.199997,-1.76 M 88.959999,0 90.720001,-1.76 M 92.480003,0 94.400002,-1.76 M 96.160004,0 97.919998,-1.76 M 99.68,0 l 1.76,-1.76 m 1.76,1.76 1.76,-1.76 m 1.76,1.76 1.92,-1.76 m 1.76,1.76 1.76,-1.76 m 1.76,1.76 1.76,-1.76 m 1.76,1.76 1.76,-1.76 m 1.76,1.76 1.92,-1.76 m 1.6,1.76 1.92,-1.76 m 1.76,1.76 1.76,-1.76 M 131.67999,0 133.44,-1.76 M 135.2,0 136.96001,-1.76 M 138.72,0 140.64,-1.76 M 142.39999,0 144.16,-1.76 m 1.76,1.76 1.75999,-1.76 M 149.44,0 151.2,-1.76 M 152.96001,0 154.88,-1.76 m 1.76,1.76 1.75999,-1.76 M 160.16,0 161.92,-1.76 M 163.67999,0 165.44,-1.76 M 167.2,0 169.11999,-1.76 M 170.72,0 172.64,-1.76 M 174.39999,0 176.16,-1.76 m 1.76,1.76 1.75999,-1.76 M 181.44,0 183.36,-1.76 M 184.96001,0 186.88,-1.76 m 1.76,1.76 1.75999,-1.76 M 192.16,0 193.92,-1.76 M 195.67999,0 197.44,-1.76 m 1.76,1.76 1.91999,-1.76"
         style="fill:none;stroke:#ff0000;stroke-width:3.84;stroke-linecap:round;stroke-linejoin:round;stroke-miterlimit:10;stroke-dasharray:none;stroke-opacity:1"
         id="path74" />
    </g>
    <g
       id="g76">
      <path
         d="M 328.79999,791.67999 H 530.88 V 793.44 H 328.79999 Z"
         style="fill:none;stroke:#ff0000;stroke-width:3.84;stroke-linecap:round;stroke-linejoin:round;stroke-miterlimit:10;stroke-dasharray:none;stroke-opacity:1"
         id="path78" />
    </g>
    <g
       id="g80">
      <path
         d="M 489.76001,795.52002 H 530.56 v 1.76001 h -40.79999 z"
         style="fill:none;stroke:#ff0000;stroke-width:3.84;stroke-linecap:round;stroke-linejoin:round;stroke-miterlimit:10;stroke-dasharray:none;stroke-opacity:1"
         id="path82" />
    </g>
    <g
       id="g84">
      <path
         d="m 491.51999,797.28003 v 24.31995 h -1.75998 v -24.31995 z"
         style="fill:none;stroke:#ff0000;stroke-width:3.84;stroke-linecap:round;stroke-linejoin:round;stroke-miterlimit:10;stroke-dasharray:none;stroke-opacity:1"
         id="path86" />
    </g>
    <g
       id="g88">
      <path
         d="M 330.56,793.59998 V 822.88 h -1.76001 v -29.28002 z"
         style="fill:none;stroke:#ff0000;stroke-width:3.84;stroke-linecap:round;stroke-linejoin:round;stroke-miterlimit:10;stroke-dasharray:none;stroke-opacity:1"
         id="path90" />
    </g>
    <g
       id="g92"
       transform="translate(336.48001,798.23999)">
      <path
         d="M 0,0 V 24.639999 H -1.76 V 0 H 0 184.48 V 1.76 H 0 Z"
         style="fill:none;stroke:#0000ff;stroke-width:3.84;stroke-linecap:round;stroke-linejoin:round;stroke-miterlimit:10;stroke-dasharray:none;stroke-opacity:1"
         id="path94" />
    </g>
    <g
       id="g96"
       transform="translate(483.20001,801.12)">
      <path
         d="M 0,0 V 20.48 H -1.92 V 0 H 0 41.759998 V 1.92 H 0 Z"
         style="fill:none;stroke:#0000ff;stroke-width:3.84;stroke-linecap:round;stroke-linejoin:round;stroke-miterlimit:10;stroke-dasharray:none;stroke-opacity:1"
         id="path98" />
    </g>
    <g
       id="g100">
      <path
         d="M 524.96002,789.76001 V 801.12 h -1.76001 v -11.35999 z"
         style="fill:none;stroke:#0000ff;stroke-width:3.84;stroke-linecap:round;stroke-linejoin:round;stroke-miterlimit:10;stroke-dasharray:none;stroke-opacity:1"
         id="path102" />
    </g>
    <g
       id="g104">
      <path
         d="m 520.96002,789.76001 v 8.47998 h -1.76001 v -8.47998 z"
         style="fill:none;stroke:#0000ff;stroke-width:3.84;stroke-linecap:round;stroke-linejoin:round;stroke-miterlimit:10;stroke-dasharray:none;stroke-opacity:1"
         id="path106" />
    </g>
    <g
       id="g108"
       transform="translate(518.71997,557.28003)">
      <path
         d="M 0,0 0.32,-0.32 M 0,3.52 1.92,1.76 M 0,7.04 1.92,5.28 M 4,3.2 5.76,1.44 M 0,10.72 1.92,8.8 M 4,6.72 5.76,4.96 M 0,14.24 1.92,12.32 M 4,10.24 5.76,8.48 M 0,17.76 1.92,16 M 4,13.92 5.76,12 M 0,21.280001 1.92,19.52 M 4,17.440001 5.76,15.68 M 0,24.799999 1.92,23.040001 M 4,20.959999 5.76,19.200001 M 0,28.48 1.92,26.559999 M 4,24.48 5.76,22.719999 M 0,32 1.92,30.24 M 4,28.16 5.76,26.24 M 0,35.52 1.92,33.759998 M 4,31.68 5.76,29.92 M 0,39.040001 1.92,37.279999 M 4,35.200001 5.76,33.439999 M 0,42.720001 1.92,40.799999 M 4,38.720001 5.76,36.959999 M 0,46.240002 1.92,44.48 M 4,42.400002 5.76,40.48 M 0,49.759998 1.92,48 M 4,45.919998 5.76,44 M 0,53.279999 1.92,51.52 M 4,49.439999 5.76,47.68 M 0,56.959999 1.92,55.040001 M 4,52.959999 5.76,51.200001 M 0,60.48 1.92,58.560001 M 4,56.639999 5.76,54.720001 M 0,64 1.92,62.240002 M 4,60.16 5.76,58.240002 M 0,67.519997 1.92,65.760002 M 4,63.68 5.76,61.919998 M 0,71.199997 1.92,69.279999 M 4,67.199997 5.76,65.440002 M 0,74.720001 1.92,72.800003 M 4,70.720001 5.76,68.959999 M 0,78.239998 1.92,76.480003 M 4,74.400002 5.76,72.480003 M 0,81.760002 1.92,80 M 4,77.919998 5.76,76.160004 M 0,85.279999 1.92,83.519997 M 4,81.440002 5.76,79.68 M 0,88.959999 1.92,87.040001 M 4,84.959999 5.76,83.199997 M 0,92.480003 1.92,90.720001 M 4,88.639999 5.76,86.720001 M 0,96 1.92,94.239998 M 4,92.160004 5.76,90.400002 M 0,99.519997 1.92,97.760002 M 4,95.68 5.76,93.919998 M 0,103.2 1.92,101.28 M 4,99.199997 5.76,97.440002 M 0,106.72 1.92,104.96 M 4,102.88 5.76,100.96 M 0,110.24 1.92,108.48 M 4,106.4 5.76,104.48 M 0,113.76 1.92,112 M 4,109.92 5.76,108.16 M 0,117.44 1.92,115.52 M 4,113.44 5.76,111.68 M 0,120.96 1.92,119.04 M 4,117.12 5.76,115.2 M 0,124.48 1.92,122.72 M 4,120.64 5.76,118.72 M 0,128 1.92,126.24 M 4,124.16 5.76,122.4 m -5.76,9.27999 1.92,-1.92 M 4,127.68 5.76,125.92 M 0,135.2 1.92,133.28 M 4,131.2 5.76,129.44 M 0,138.72 1.92,136.96001 M 4,134.88 5.76,132.96001 M 0,142.24 1.92,140.48 M 4,138.39999 5.76,136.64 M 0,145.75999 1.92,144 M 4,141.92 5.76,140.16 M 0,149.44 1.92,147.52 M 4,145.44 5.76,143.67999 M 0,152.96001 1.92,151.2 M 4,149.11999 5.76,147.2 M 0,156.48 1.92,154.72 M 4,152.64 5.76,150.88 M 0,160 1.92,158.24 M 4,156.16 5.76,154.39999 m -5.76,9.28 1.92,-1.92 M 4,159.67999 5.76,157.92 M 0,167.2 1.92,165.44 M 4,163.36 5.76,161.44 M 0,170.72 1.92,168.96001 M 4,166.88 5.76,164.96001 M 0,174.24 1.92,172.48 M 4,170.39999 5.76,168.64 M 0,177.92 1.92,176 M 4,173.92 5.76,172.16 M 0,181.44 1.92,179.67999 M 4,177.60001 5.76,175.67999 M 0,184.96001 1.92,183.2 M 4,181.11999 5.76,179.2 M 0,188.48 1.92,186.72 M 4,184.64 5.76,182.88 M 0,192.16 1.92,190.24 M 4,188.16 5.76,186.39999 m -5.76,9.28 1.92,-1.92 M 4,191.67999 5.76,189.92 M 0,199.2 1.92,197.44 M 4,195.36 5.76,193.44 M 0,202.72 1.92,200.96001 M 4,198.88 5.76,197.11999 M 0,206.39999 1.92,204.48 M 4,202.39999 5.76,200.64 M 0,209.92 1.92,208 M 4,205.92 5.76,204.16 M 0,213.44 1.92,211.67999 M 4,209.60001 5.76,207.67999 M 0,216.96001 1.92,215.2 M 4,213.11999 5.76,211.36 M 0,220.48 1.92,218.72 M 4,216.64 5.76,214.88 M 0,224.16 1.92,222.24 M 4,220.16 5.76,218.39999 M 0,227.67999 1.92,225.92 M 4,223.84 5.76,221.92"
         style="fill:none;stroke:#0000ff;stroke-width:3.84;stroke-linecap:round;stroke-linejoin:round;stroke-miterlimit:10;stroke-dasharray:none;stroke-opacity:1"
         id="path110" />
    </g>
    <g
       id="g112"
       transform="translate(518.71997,788.47998)">
      <path
         d="M 0,0 1.92,-1.76 M 4,-3.84 5.76,-5.76 M 4,-0.32 5.76,-2.08 M 5.6,1.6 5.76,1.44"
         style="fill:none;stroke:#0000ff;stroke-width:3.84;stroke-linecap:round;stroke-linejoin:round;stroke-miterlimit:10;stroke-dasharray:none;stroke-opacity:1"
         id="path114" />
    </g>
    <g
       id="g116">
      <path
         d="m 524.47998,556.96002 v 233.12 h -1.76001 v -233.12 z"
         style="fill:none;stroke:#0000ff;stroke-width:3.84;stroke-linecap:round;stroke-linejoin:round;stroke-miterlimit:10;stroke-dasharray:none;stroke-opacity:1"
         id="path118" />
    </g>
    <g
       id="g120">
      <path
         d="m 520.64001,556.96002 v 233.12 h -1.92004 v -233.12 z"
         style="fill:none;stroke:#0000ff;stroke-width:3.84;stroke-linecap:round;stroke-linejoin:round;stroke-miterlimit:10;stroke-dasharray:none;stroke-opacity:1"
         id="path122" />
    </g>
    <g
       id="g124">
      <path
         d="M 571.84003,514.56 H 769.59998 V 728 H 571.84003 Z"
         style="fill:none;stroke:#000000;stroke-width:0.96;stroke-linecap:round;stroke-linejoin:round;stroke-miterlimit:10;stroke-dasharray:none;stroke-opacity:1"
         id="path126" />
    </g>
    <g
       id="g128"
       transform="translate(571.84003,534.71997)">
      <path
         d="M 0,0 H 197.75999 M -0.16,20 H 197.60001 M 0,39.52 H 197.60001 M -0.16,59.200001 h 197.76001"
         style="fill:none;stroke:#000000;stroke-width:0.96;stroke-linecap:round;stroke-linejoin:round;stroke-miterlimit:10;stroke-dasharray:none;stroke-opacity:1"
         id="path130" />
    </g>
    <g
       id="g132">
      <text
         xml:space="preserve"
         transform="translate(604.96002,525.28003)"
         style="font-variant:normal;font-weight:normal;font-size:8.16px;font-family:F1;-inkscape-font-specification:F1;writing-mode:lr-tb;fill:#000000;fill-opacity:1;fill-rule:nonzero;stroke:none"
         id="text136"><tspan
           x="0 17.136 22.521601 27.0096 31.497601 35.9856 37.944 40.147202 44.635201 49.123199 55.080002 56.793598 61.281601 63.484798 66.259201 70.257599 74.745598 76.948799 81.110397 82.923294 87.329689 91.817688 93.630585 98.118584 102.52498"
           y="0"
           id="tspan134">-Kanał powietrza ciepłego</tspan></text>
    </g>
    <g
       id="g138">
      <path
         d="M 571.67999,667.84003 H 769.44"
         style="fill:none;stroke:#000000;stroke-width:0.96;stroke-linecap:round;stroke-linejoin:round;stroke-miterlimit:10;stroke-dasharray:none;stroke-opacity:1"
         id="path140" />
    </g>
    <g
       id="g142"
       transform="scale(0.082031)">
      <text
         xml:space="preserve"
         transform="translate(7031.52,6198.5601)"
         style="font-variant:normal;font-weight:normal;font-size:327.68px;font-family:F1;-inkscape-font-specification:F1;writing-mode:lr-tb;fill:#000000;fill-opacity:1;fill-rule:nonzero;stroke:none"
         id="text146"><tspan
           x="0 183.50079 403.04639 658.63678 878.18237 1114.1119 1353.3184 1572.864 1661.3375 1880.8832 1972.6335"
           y="0"
           id="tspan144">LEGENDA A/C</tspan></text>
    </g>
    <g
       id="g148">
      <path
         d="M 574.23999,519.20001 H 602.88 v 7.83997 h -28.64001 z"
         style="fill:none;stroke:#ff0000;stroke-width:0.96;stroke-linecap:round;stroke-linejoin:round;stroke-miterlimit:10;stroke-dasharray:none;stroke-opacity:1"
         id="path150" />
    </g>
    <g
       id="g152">
      <path
         d="M 582.23999,523.03998 H 593.12 l -3.83997,2.24005"
         style="fill:none;stroke:#ff0000;stroke-width:0.96;stroke-linecap:round;stroke-linejoin:round;stroke-miterlimit:10;stroke-dasharray:none;stroke-opacity:1"
         id="path154" />
    </g>
    <g
       id="g156">
      <path
         d="m 593.12,523.03998 -3.83997,-2.71997"
         style="fill:none;stroke:#ff0000;stroke-width:0.96;stroke-linecap:round;stroke-linejoin:round;stroke-miterlimit:10;stroke-dasharray:none;stroke-opacity:1"
         id="path158" />
    </g>
    <g
       id="g160">
      <path
         d="m 574.23999,539.35998 h 28.79999 v 7.84003 h -28.79999 z"
         style="fill:none;stroke:#0000ff;stroke-width:0.96;stroke-linecap:round;stroke-linejoin:round;stroke-miterlimit:10;stroke-dasharray:none;stroke-opacity:1"
         id="path162" />
    </g>
    <g
       id="g164">
      <path
         d="M 582.23999,543.20001 H 593.12 l -3.83997,2.23999"
         style="fill:none;stroke:#0000ff;stroke-width:0.96;stroke-linecap:round;stroke-linejoin:round;stroke-miterlimit:10;stroke-dasharray:none;stroke-opacity:1"
         id="path166" />
    </g>
    <g
       id="g168">
      <path
         d="m 593.12,543.20001 -3.83997,-2.72003"
         style="fill:none;stroke:#0000ff;stroke-width:0.96;stroke-linecap:round;stroke-linejoin:round;stroke-miterlimit:10;stroke-dasharray:none;stroke-opacity:1"
         id="path170" />
    </g>
    <g
       id="g172">
      <text
         xml:space="preserve"
         transform="translate(605.44,545.44)"
         style="font-variant:normal;font-weight:normal;font-size:8.16px;font-family:F1;-inkscape-font-specification:F1;writing-mode:lr-tb;fill:#000000;fill-opacity:1;fill-rule:nonzero;stroke:none"
         id="text176"><tspan
           x="0 17.136 22.521601 27.0096 31.497601 35.9856 37.944 40.147202 44.635201 49.123199 55.080002 56.793598 61.281601 63.484798 66.259201 70.257599 74.745598 76.948799 81.110397 82.923294 89.614494 94.102493 98.590492 103.07849"
           y="0"
           id="tspan174">-Kanał powietrza zimnego</tspan></text>
    </g>
    <g
       id="g178"
       transform="translate(574.88,564.96002)">
      <path
         d="M 0,0 3.2,-3.2 M 2.24,1.28 6.72,-3.2 M 5.76,1.28 10.4,-3.2 M 9.28,1.28 13.92,-3.2 M 12.8,1.28 17.440001,-3.2 M 16.32,1.28 20.959999,-3.2 M 20,1.28 24.48,-3.2 M 23.52,1.28 28.16,-3.2 M 27.040001,1.28 28.32,0.16"
         style="fill:none;stroke:#ff0000;stroke-width:0.96;stroke-linecap:round;stroke-linejoin:round;stroke-miterlimit:10;stroke-dasharray:none;stroke-opacity:1"
         id="path180" />
    </g>
    <g
       id="g182">
      <path
         d="m 574.88,561.76001 h 28.32001 v 4.47998 H 574.88 Z"
         style="fill:none;stroke:#ff0000;stroke-width:0.96;stroke-linecap:round;stroke-linejoin:round;stroke-miterlimit:10;stroke-dasharray:none;stroke-opacity:1"
         id="path184" />
    </g>
    <g
       id="g186"
       transform="translate(575.03998,582.56)">
      <path
         d="M 0,0 1.6,-1.6 M 0.48,3.04 5.12,-1.6 M 4.16,3.04 8.64,-1.6 M 7.68,3.04 12.32,-1.6 M 11.2,3.04 15.84,-1.6 M 14.72,3.04 19.360001,-1.6 M 18.24,3.04 22.879999,-1.6 M 21.92,3.04 26.4,-1.6 M 25.440001,3.04 28.32,0.16"
         style="fill:none;stroke:#0000ff;stroke-width:0.96;stroke-linecap:round;stroke-linejoin:round;stroke-miterlimit:10;stroke-dasharray:none;stroke-opacity:1"
         id="path188" />
    </g>
    <g
       id="g190">
      <path
         d="m 575.03998,580.96002 h 28.32 v 4.63996 h -28.32 z"
         style="fill:none;stroke:#0000ff;stroke-width:0.96;stroke-linecap:round;stroke-linejoin:round;stroke-miterlimit:10;stroke-dasharray:none;stroke-opacity:1"
         id="path192" />
    </g>
    <g
       id="g194">
      <text
         xml:space="preserve"
         transform="translate(605.91998,566.08002)"
         style="font-variant:normal;font-weight:normal;font-size:8.16px;font-family:F1;-inkscape-font-specification:F1;writing-mode:lr-tb;fill:#000000;fill-opacity:1;fill-rule:nonzero;stroke:none"
         id="text198"><tspan
           x="0 17.136 23.028891 27.516891 30.234234 34.722233 37.088634 42.882233 50.58403 52.787231 55.504574 59.502975 61.461376 65.949371 70.437378 72.150978 76.638977"
           y="0"
           id="tspan196">-Rura CW (ciepła)</tspan></text>
    </g>
    <g
       id="g200">
      <text
         xml:space="preserve"
         transform="translate(606.40002,585.28003)"
         style="font-variant:normal;font-weight:normal;font-size:8.16px;font-family:F1;-inkscape-font-specification:F1;writing-mode:lr-tb;fill:#000000;fill-opacity:1;fill-rule:nonzero;stroke:none"
         id="text204"><tspan
           x="0 16.972799 22.86569 27.353691 30.071033 34.559036 36.925434 42.719036 50.42083 52.624031 55.39843 59.396832 61.110432 67.801628 72.289635 76.777634"
           y="0"
           id="tspan202">-Rura CW (zimna)</tspan></text>
    </g>
    <g
       id="g206">
      <path
         d="m 651.52002,604.32001 h -70.56 V 654.88"
         style="fill:none;stroke:#000000;stroke-width:1.28;stroke-linecap:round;stroke-linejoin:round;stroke-miterlimit:10;stroke-dasharray:none;stroke-opacity:1"
         id="path208" />
    </g>
    <g
       id="g210">
      <path
         d="M 651.52002,604.32001 V 654.88 h -70.56"
         style="fill:none;stroke:#000000;stroke-width:1.28;stroke-linecap:round;stroke-linejoin:round;stroke-miterlimit:10;stroke-dasharray:none;stroke-opacity:1"
         id="path212" />
    </g>
    <g
       id="g214">
      <text
         xml:space="preserve"
         transform="translate(666.40002,632.64001)"
         style="font-variant:normal;font-weight:normal;font-size:8.16px;font-family:F1;-inkscape-font-specification:F1;writing-mode:lr-tb;fill:#000000;fill-opacity:1;fill-rule:nonzero;stroke:none"
         id="text218"><tspan
           x="0 17.2992 23.192091 27.68009 29.492981 31.369781 33.083382 37.571381"
           y="0"
           id="tspan216">-Chiller</tspan></text>
    </g>
    <g
       id="g220">
      <path
         d="M 603.03998,715.03998 V 699.20001"
         style="fill:none;stroke:#000000;stroke-width:1.28;stroke-linecap:round;stroke-linejoin:round;stroke-miterlimit:10;stroke-dasharray:none;stroke-opacity:1"
         id="path222" />
    </g>
    <g
       id="g224">
      <path
         d="m 603.03998,715.03998 h 0.16003 M 603.03998,698.56 v -0.15998"
         style="fill:none;stroke:#000000;stroke-width:1.28;stroke-linecap:round;stroke-linejoin:round;stroke-miterlimit:10;stroke-dasharray:none;stroke-opacity:1"
         id="path226" />
    </g>
    <g
       id="g228">
      <path
         d="m 603.67999,691.67999 h 0.16004 z"
         style="fill:none;stroke:#000000;stroke-width:1.28;stroke-linecap:round;stroke-linejoin:round;stroke-miterlimit:10;stroke-dasharray:none;stroke-opacity:1"
         id="path230" />
    </g>
    <g
       id="g232">
      <path
         d="M 603.84003,691.67999 H 604"
         style="fill:none;stroke:#000000;stroke-width:1.28;stroke-linecap:round;stroke-linejoin:round;stroke-miterlimit:10;stroke-dasharray:none;stroke-opacity:1"
         id="path234" />
    </g>
    <g
       id="g236">
      <path
         d="m 603.67999,691.52002 v 0.15997 h -0.15997"
         style="fill:none;stroke:#000000;stroke-width:1.28;stroke-linecap:round;stroke-linejoin:round;stroke-miterlimit:10;stroke-dasharray:none;stroke-opacity:1"
         id="path238" />
    </g>
    <g
       id="g240"
       transform="translate(603.67999,691.67999)">
      <path
         d="M 0,0 H 0.16 M 0,-0.16 H 0.16 M 0,-0.32 H -0.16 M 0,-0.16 H 0.16 M 0,0 H 0.16 M 0,-0.16 h 0.16"
         style="fill:none;stroke:#000000;stroke-width:1.28;stroke-linecap:round;stroke-linejoin:round;stroke-miterlimit:10;stroke-dasharray:none;stroke-opacity:1"
         id="path242" />
    </g>
    <g
       id="g244">
      <path
         d="m 603.67999,691.35998 v 0.16004"
         style="fill:none;stroke:#000000;stroke-width:1.28;stroke-linecap:round;stroke-linejoin:round;stroke-miterlimit:10;stroke-dasharray:none;stroke-opacity:1"
         id="path246" />
    </g>
    <g
       id="g248">
      <path
         d="m 603.67999,691.35998 h 0.16004 m -0.80005,0.48005 h 0.48004"
         style="fill:none;stroke:#000000;stroke-width:1.28;stroke-linecap:round;stroke-linejoin:round;stroke-miterlimit:10;stroke-dasharray:none;stroke-opacity:1"
         id="path250" />
    </g>
    <g
       id="g252">
      <path
         d="m 603.03998,691.20001 h 0.48004 v 0.64002"
         style="fill:none;stroke:#000000;stroke-width:1.28;stroke-linecap:round;stroke-linejoin:round;stroke-miterlimit:10;stroke-dasharray:none;stroke-opacity:1"
         id="path254" />
    </g>
    <g
       id="g256">
      <path
         d="m 603.84003,691.20001 h -0.16004 v 0.15997"
         style="fill:none;stroke:#000000;stroke-width:1.28;stroke-linecap:round;stroke-linejoin:round;stroke-miterlimit:10;stroke-dasharray:none;stroke-opacity:1"
         id="path258" />
    </g>
    <g
       id="g260">
      <path
         d="m 603.67999,691.67999 h 0.16004 v -0.47998"
         style="fill:none;stroke:#000000;stroke-width:1.28;stroke-linecap:round;stroke-linejoin:round;stroke-miterlimit:10;stroke-dasharray:none;stroke-opacity:1"
         id="path262" />
    </g>
    <g
       id="g264">
      <path
         d="M 603.84003,691.67999 H 604"
         style="fill:none;stroke:#000000;stroke-width:1.28;stroke-linecap:round;stroke-linejoin:round;stroke-miterlimit:10;stroke-dasharray:none;stroke-opacity:1"
         id="path266" />
    </g>
    <g
       id="g268">
      <path
         d="M 603.84003,691.20001 H 604"
         style="fill:none;stroke:#000000;stroke-width:1.28;stroke-linecap:round;stroke-linejoin:round;stroke-miterlimit:10;stroke-dasharray:none;stroke-opacity:1"
         id="path270" />
    </g>
    <g
       id="g272">
      <path
         d="m 603.67999,691.20001 h 0.16004"
         style="fill:none;stroke:#000000;stroke-width:1.28;stroke-linecap:round;stroke-linejoin:round;stroke-miterlimit:10;stroke-dasharray:none;stroke-opacity:1"
         id="path274" />
    </g>
    <g
       id="g276">
      <path
         d="m 603.84003,691.20001 h -0.16004"
         style="fill:none;stroke:#000000;stroke-width:1.28;stroke-linecap:round;stroke-linejoin:round;stroke-miterlimit:10;stroke-dasharray:none;stroke-opacity:1"
         id="path278" />
    </g>
    <g
       id="g280">
      <path
         d="m 603.52002,685.91998 h 0.15997"
         style="fill:none;stroke:#000000;stroke-width:1.28;stroke-linecap:round;stroke-linejoin:round;stroke-miterlimit:10;stroke-dasharray:none;stroke-opacity:1"
         id="path282" />
    </g>
    <g
       id="g284">
      <path
         d="m 603.52002,684 v 1.91998"
         style="fill:none;stroke:#000000;stroke-width:1.28;stroke-linecap:round;stroke-linejoin:round;stroke-miterlimit:10;stroke-dasharray:none;stroke-opacity:1"
         id="path286" />
    </g>
    <g
       id="g288">
      <path
         d="m 603.52002,684 h 0.15997"
         style="fill:none;stroke:#000000;stroke-width:1.28;stroke-linecap:round;stroke-linejoin:round;stroke-miterlimit:10;stroke-dasharray:none;stroke-opacity:1"
         id="path290" />
    </g>
    <g
       id="g292"
       transform="translate(603.52002,686.08002)">
      <path
         d="M 0,0 H 0.16 M 0,-2.24 H 0.16 M 0,0 v -0.16 m 0,-1.92 v -0.16"
         style="fill:none;stroke:#000000;stroke-width:1.28;stroke-linecap:round;stroke-linejoin:round;stroke-miterlimit:10;stroke-dasharray:none;stroke-opacity:1"
         id="path294" />
    </g>
    <g
       id="g296">
      <path
         d="m 603.03998,687.35998 h 0.48004 V 682.56 h -0.48004"
         style="fill:none;stroke:#000000;stroke-width:1.28;stroke-linecap:round;stroke-linejoin:round;stroke-miterlimit:10;stroke-dasharray:none;stroke-opacity:1"
         id="path298" />
    </g>
    <g
       id="g300">
      <path
         d="m 603.03998,697.59998 v -5.75995 m 0,-0.64002 v -3.84003"
         style="fill:none;stroke:#000000;stroke-width:1.28;stroke-linecap:round;stroke-linejoin:round;stroke-miterlimit:10;stroke-dasharray:none;stroke-opacity:1"
         id="path302" />
    </g>
    <g
       id="g304">
      <path
         d="m 603.03998,682.56 v -0.79999"
         style="fill:none;stroke:#000000;stroke-width:1.28;stroke-linecap:round;stroke-linejoin:round;stroke-miterlimit:10;stroke-dasharray:none;stroke-opacity:1"
         id="path306" />
    </g>
    <g
       id="g308">
      <path
         d="m 603.03998,697.59998 h 0.16003"
         style="fill:none;stroke:#000000;stroke-width:1.28;stroke-linecap:round;stroke-linejoin:round;stroke-miterlimit:10;stroke-dasharray:none;stroke-opacity:1"
         id="path310" />
    </g>
    <g
       id="g312">
      <path
         d="m 602.88,698.56 h 0.15998 v 17.28003 H 586.56"
         style="fill:none;stroke:#000000;stroke-width:1.28;stroke-linecap:round;stroke-linejoin:round;stroke-miterlimit:10;stroke-dasharray:none;stroke-opacity:1"
         id="path314" />
    </g>
    <g
       id="g316"
       transform="translate(602.71997,715.52002)">
      <path
         d="m 0,0 h -15.84 m 16,-16.959999 v -0.160002 M 0,-34.240002 V 0 m -15.84,0 v -34.240002"
         style="fill:none;stroke:#000000;stroke-width:1.28;stroke-linecap:round;stroke-linejoin:round;stroke-miterlimit:10;stroke-dasharray:none;stroke-opacity:1"
         id="path318" />
    </g>
    <g
       id="g320">
      <path
         d="m 586.56,715.84003 v -34.88001 h 16.47998"
         style="fill:none;stroke:#000000;stroke-width:1.28;stroke-linecap:round;stroke-linejoin:round;stroke-miterlimit:10;stroke-dasharray:none;stroke-opacity:1"
         id="path322" />
    </g>
    <g
       id="g324">
      <path
         d="m 586.88,681.28003 h 15.83997"
         style="fill:none;stroke:#000000;stroke-width:1.28;stroke-linecap:round;stroke-linejoin:round;stroke-miterlimit:10;stroke-dasharray:none;stroke-opacity:1"
         id="path326" />
    </g>
    <g
       id="g328">
      <path
         d="m 602.88,698.40002 h 0.15998 v -17.44"
         style="fill:none;stroke:#000000;stroke-width:1.28;stroke-linecap:round;stroke-linejoin:round;stroke-miterlimit:10;stroke-dasharray:none;stroke-opacity:1"
         id="path330" />
    </g>
    <g
       id="g332">
      <text
         xml:space="preserve"
         transform="translate(617.76001,699.35998)"
         style="font-variant:normal;font-weight:normal;font-size:8.16px;font-family:F1;-inkscape-font-specification:F1;writing-mode:lr-tb;fill:#000000;fill-opacity:1;fill-rule:nonzero;stroke:none"
         id="text336"><tspan
           x="0 17.136 23.028891 27.516891 34.371292 38.859291 43.51049 45.777599 50.428799 52.958401 55.324799 61.118401 65.7696 70.257599 77.112 79.379112 84.764709 86.577599 89.294945 91.498146 97.454941 101.94295 106.59415 111.00054 112.81343 117.30144 119.83103 122.09814 124.62775 130.42134 136.13335 141.43735 147.23094"
           y="0"
           id="tspan334">-Computer Room Air Handler (CRAH)</tspan></text>
    </g>
    <g
       id="g338">
      <path
         d="M 31.52,789.28003 35.040001,229.44 l 500.160009,0.31999 -3.35998,560.00002"
         style="fill:none;stroke:#000000;stroke-width:3.84;stroke-linecap:round;stroke-linejoin:round;stroke-miterlimit:10;stroke-dasharray:none;stroke-opacity:1"
         id="path340" />
    </g>
  </g>
</svg>
